<svg width="66" height="83" viewBox="0 0 66 83" fill="none" xmlns="http://www.w3.org/2000/svg">
<path d="M34.2414 64.6167C34.2414 63.8486 33.9647 63.1234 33.3272 62.6399C32.8823 62.3024 32.492 61.9272 32.1855 61.5067C32.0076 61.2649 31.8569 61.0156 31.7283 60.7638C31.5825 60.4716 31.4664 60.1796 31.375 59.89C31.2713 59.5575 31.1971 59.2302 31.1427 58.9104C31.0809 58.5452 31.0488 58.1927 31.0266 57.8477C31.0043 57.4573 30.9994 57.0847 30.9994 56.7271C30.9994 56.3971 30.9969 56.0774 30.9969 55.7852V55.5736V54.1003V53.5161C30.9969 53.5161 30.9969 45.4072 30.9969 42.5818C30.9969 41.2446 30.6188 40.0081 29.4575 38.8245C26.8653 36.1827 22.8844 37.2052 22.6472 37.1272L13.6378 39.3584C15.9704 42.5969 19.2322 45.1856 23.2031 46.6664V50.0787C9.76065 53.9316 0 65.7876 0 82.519H12.7629H21.612V80.5674C21.612 79.5426 21.6639 78.6057 21.7727 77.7444C21.8789 76.8807 22.0445 76.0898 22.2768 75.3646C22.4325 74.8811 22.6203 74.4253 22.8403 73.9972C23.1343 73.4256 23.4952 72.9093 23.9152 72.456C24.1574 72.1967 25.9218 70.1719 28.4768 70.1719C32.5834 70.1722 34.2414 68.0216 34.2414 64.6167Z" fill="white"/>
<path d="M41.4217 49.7184V44.6667C45.2147 42.2215 48.9165 34.8179 48.9165 25.9057V20.0885C48.3581 8.43911 38.6369 -0.543619 27.206 0.0256283C16.2023 0.574568 7.62535 9.77874 7.50421 20.8591L2.9526 27.2252C2.5819 27.7263 2.40399 28.2754 2.69814 28.8521C3.0021 29.4389 3.64212 29.5472 4.161 29.6278L7.90954 30.2094L8.26284 33.8357C8.26284 33.8357 22.7926 33.8912 25.1376 33.8912C35.0068 33.8912 34.4559 36.631 34.4559 42.5817C34.4559 45.4071 34.4559 53.0048 34.4559 53.0048V53.3498C34.4559 53.6772 34.451 53.9945 34.451 54.2941C34.451 54.6617 34.4807 55.0068 34.4807 55.314C34.4807 55.9637 35.0812 56.6562 35.1726 56.7695C35.2245 56.8325 35.2863 56.893 35.3605 56.9584C35.4444 57.029 35.5483 57.0994 35.6817 57.1724C35.8324 57.258 36.0226 57.3412 36.2598 57.4192C36.5317 57.5073 36.8701 57.5853 37.2755 57.6458C37.5918 57.6887 37.9525 57.7238 38.3602 57.7389C39.0941 57.6986 39.8972 57.7465 40.7201 57.9404C46.1663 59.2146 50.0112 67.9278 44.56 74.6893C39.1065 81.4509 31.1596 79.1063 27.9225 77.1723C27.1392 76.7064 25.7629 75.961 25.5059 76.986C25.3996 77.4091 25.3254 77.8976 25.2661 78.4467C25.2019 79.0738 25.1648 79.7789 25.1673 80.567V82.5186H50.8117H65.9963C65.9961 65.2233 55.5659 53.1382 41.4217 49.7184Z" fill="#F7DECE"/>
</svg>
