<svg width="46" height="46" viewBox="0 0 46 46" fill="none" xmlns="http://www.w3.org/2000/svg">
<path d="M22.9724 0C35.6753 0 45.9724 10.2971 45.9724 23V39.1C45.9724 40.93 45.2454 42.685 43.9514 43.979C42.6574 45.273 40.9024 46 39.0724 46H24.1224V35.9099C24.1224 33.6076 24.2627 31.2225 25.4702 29.2629C26.3347 27.8586 27.4911 26.6566 28.861 25.7385C30.2309 24.8204 31.7823 24.2077 33.4098 23.9419L33.8503 23.8706C34.0318 23.8085 34.1895 23.6912 34.3011 23.5351C34.4127 23.379 34.4727 23.1919 34.4727 23C34.4727 22.8081 34.4127 22.621 34.3011 22.4649C34.1895 22.3088 34.0318 22.1915 33.8503 22.1294L33.4098 22.0581C31.0318 21.6697 28.8359 20.5441 27.1321 18.8403C25.4283 17.1365 24.3027 14.9406 23.9142 12.5626L23.8429 12.1222C23.7809 11.9406 23.6636 11.7829 23.5075 11.6713C23.3514 11.5597 23.1643 11.4997 22.9724 11.4997C22.7805 11.4997 22.5934 11.5597 22.4373 11.6713C22.2812 11.7829 22.1639 11.9406 22.1018 12.1222L22.0306 12.5626C21.7648 14.1902 21.1521 15.7415 20.234 17.1114C19.3159 18.4814 18.1139 19.6378 16.7095 20.5022C14.7499 21.7097 12.3648 21.85 10.0625 21.85H0C0.60145 9.68185 10.6559 0 22.9724 0Z" fill="#5F6FFF"/>
</svg>
